Coordinates
version=1
nRows=15
nColumns=42
inDegrees=yes

Units are S.I. units (second, meters, Newtons, ...)
If the header above contains a line with 'inDegrees', this indicates whether rotational values are in degrees (yes) or radians (no).

endheader
time	pelvis_tilt	pelvis_list	pelvis_rotation	pelvis_tx	pelvis_ty	pelvis_tz	hip_flexion_r	hip_adduction_r	hip_rotation_r	knee_angle_r	knee_adduction_r	knee_angle_r_beta	ankle_angle_r	subtalar_angle_r	mtp_angle_r	hip_flexion_l	hip_adduction_l	hip_rotation_l	knee_angle_l	knee_adduction_l	knee_angle_l_beta	ankle_angle_l	subtalar_angle_l	mtp_angle_l	lumbar_extension	lumbar_bending	lumbar_rotation	arm_flex_r	arm_add_r	arm_rot_r	elbow_flex_r	pro_sup_r	wrist_flex_r	wrist_dev_r	arm_flex_l	arm_add_l	arm_rot_l	elbow_flex_l	pro_sup_l	wrist_flex_l	wrist_dev_l
      0.00000000	     -7.15132488	     -1.80348623	      3.23040012	     -1.78211233	      0.96065451	     -0.10825415	     16.50610986	      0.84113698	     -7.34589866	     58.88221431	     -0.51925958	      1.02768851	      4.67613222	    -17.18641064	     -9.60448095	     16.05826903	      2.22218419	      4.84154113	     13.17188505	     -3.47685501	      0.22989276	      9.82368359	      0.30780571	     -9.60448095	     -3.64695487	     -2.73915041	     -4.01267991	     -9.08810185	     -9.93979615	     -0.52755411	     24.73605763	     90.00000001	      0.00000000	      0.00000000	      2.85002049	    -17.16719907	      2.23281570	     31.17780819	     90.00000001	      0.00000000	      0.00000000
      0.01000000	     -7.15558845	     -1.98778900	      3.36012775	     -1.77190327	      0.96162997	     -0.10924531	     18.01331949	      0.95109983	     -6.92198896	     58.78488539	     -0.27319042	      1.02598980	      5.33809873	    -17.04379506	     -9.57298379	     15.04077809	      2.13494614	      4.92624608	     12.55299188	     -3.68406781	      0.21909104	     10.27299593	      0.63608556	     -9.57298379	     -3.54867152	     -2.35735545	     -4.30354664	     -9.43741918	     -9.76417456	     -0.54891821	     24.06075406	     90.00000001	      0.00000000	      0.00000000	      3.58112747	    -17.20123112	      2.39639647	     31.92562846	     90.00000001	      0.00000000	      0.00000000
      0.02000000	     -7.17345638	     -2.08985390	      3.47812555	     -1.76154407	      0.96240108	     -0.11021735	     19.42806402	      0.96824432	     -6.35941475	     58.36000390	      0.08427251	      1.01857422	      5.88488322	    -16.98055068	     -9.54233790	     13.97714375	      2.12624081	      5.03284024	     11.84132126	     -3.88154805	      0.20667004	     10.65809786	      0.97115860	     -9.54233790	     -3.41671001	     -2.08065792	     -4.56794455	     -9.82150618	     -9.56282616	     -0.72884427	     23.39448183	     90.00000001	      0.00000000	      0.00000000	      4.22376880	    -17.31217222	      2.66415081	     32.78060807	     90.00000001	      0.00000000	      0.00000000
      0.03000000	     -7.14122209	     -2.12211267	      3.57756900	     -1.75133163	      0.96303970	     -0.11101192	     20.73690097	      0.96207917	     -5.70027746	     57.67893653	      0.42818402	      1.00668735	      6.33173381	    -17.07115486	     -9.50978077	     12.80799042	      2.16290574	      5.20112412	     11.01882141	     -4.06775548	      0.19231471	     11.01122087	      1.29562128	     -9.50978077	     -3.39695989	     -1.89629143	     -4.81318722	    -10.14369853	     -9.29786343	     -1.08402473	     22.78384934	     90.00000001	      0.00000000	      0.00000000	      4.84459748	    -17.50863150	      3.05535173	     33.73756455	     90.00000001	      0.00000000	      0.00000000
      0.04000000	     -7.00910503	     -2.13099238	      3.65157813	     -1.74095246	      0.96357160	     -0.11178984	     21.83649173	      0.95727051	     -5.07779704	     56.72813274	      0.71320582	      0.99009269	      6.65626811	    -17.27945163	     -9.47325941	     11.45263040	      2.22088695	      5.44470613	     10.09702865	     -4.26215579	      0.17622639	     11.31754744	      1.57553163	     -9.47325941	     -3.47110054	     -1.72483857	     -5.02765681	    -10.47789779	     -9.01155036	     -1.65038811	     22.20615619	     90.00000001	      0.00000000	      0.00000000	      5.43930241	    -17.75183129	      3.59196468	     34.77878608	     90.00000001	      0.00000000	      0.00000000
      0.05000000	     -6.48104105	     -2.10764315	      3.80772471	     -1.73032371	      0.96449866	     -0.11248911	     22.29084858	      0.94770388	     -4.82165607	     55.30539883	      0.75078570	      0.96526130	      6.75925830	    -17.41934486	     -9.37105227	      9.53248409	      2.25017107	      5.89203384	      8.98950217	     -4.39833768	      0.15689641	     11.23159798	      1.36039135	     -9.37105227	     -4.02215430	     -1.58501269	     -5.17737332	    -10.72615262	     -8.58002334	     -3.11496088	     21.59565964	     90.00000001	      0.00000000	      0.00000000	      6.16461948	    -18.14649178	      4.64773813	     35.89121688	     90.00000001	      0.00000000	      0.00000000
      0.06000000	     -6.42427093	     -2.10007376	      3.95488541	     -1.71998709	      0.96446196	     -0.11323035	     23.32006648	      0.93873890	     -4.59822487	     53.84244202	      0.69810835	      0.93972789	      6.98319811	    -17.53599807	     -9.32323506	      8.33963277	      2.30657748	      6.17639172	      8.19890118	     -4.55727086	      0.14309782	     11.61258504	      1.62321445	     -9.32323506	     -4.03505426	     -1.45038897	     -5.45908818	    -11.12616217	     -8.36376664	     -3.46098564	     21.25055608	     90.00000001	      0.00000000	      0.00000000	      6.76985134	    -18.35331771	      4.90261576	     36.82782532	     90.00000001	      0.00000000	      0.00000000
      0.07000000	     -6.02941153	     -2.09741378	      4.13567079	     -1.70940115	      0.96469766	     -0.11392749	     23.78340641	      1.00887460	     -4.66596540	     51.96027382	      0.36986325	      0.90687786	      7.13561803	    -17.61198877	     -9.23399987	      6.66821607	      2.32107499	      6.51448445	      7.25570318	     -4.73747747	      0.12663591	     11.79871390	      1.65933534	     -9.23399987	     -4.43513731	     -1.28937160	     -5.69991709	    -11.46360302	     -8.10064406	     -4.19451985	     20.93792088	     90.00000001	      0.00000000	      0.00000000	      7.45847870	    -18.63122288	      5.48392070	     37.75874913	     90.00000001	      0.00000000	      0.00000000
      0.08000000	     -5.80656581	     -2.04912238	      4.30890418	     -1.69894920	      0.96443084	     -0.11461953	     24.39605910	      1.01449250	     -4.66276561	     49.93669112	      0.09311080	      0.87155968	      7.23999084	    -17.68911382	     -9.16339824	      5.26444793	      2.39616403	      6.80696536	      6.44386432	     -4.91306175	      0.11246665	     12.09496680	      1.82381657	     -9.16339824	     -4.65505249	     -1.18661238	     -5.96921827	    -11.83586215	     -7.89458512	     -4.62743038	     20.72799920	     90.00000001	      0.00000000	      0.00000000	      8.10081888	    -18.88915685	      5.91470218	     38.65468930	     90.00000001	      0.00000000	      0.00000000
      0.09000000	     -6.02061980	     -1.74317061	      4.43393420	     -1.68878693	      0.96322579	     -0.11536378	     25.56660997	      0.66574120	     -4.69012628	     48.01961140	     -0.24787026	      0.83810032	      7.41026982	    -17.53285237	     -9.14543638	      4.66427684	      2.82102939	      6.59644885	      6.25185656	     -5.05498840	      0.10911548	     12.48172093	      1.91327345	     -9.14543638	     -4.39400357	     -1.40922262	     -6.21801417	    -12.34340272	     -7.72077599	     -4.66528879	     20.66990371	     90.00000001	      0.00000000	      0.00000000	      8.75823658	    -19.02075074	      5.96652658	     39.25357396	     90.00000001	      0.00000000	      0.00000000
      0.10000000	     -5.41995091	     -1.86611246	      4.61466861	     -1.67804897	      0.96311114	     -0.11584645	     25.40362644	      0.99557027	     -4.65900916	     45.22334826	     -0.54155650	      0.78929633	      7.32076575	    -17.70386238	     -9.07975816	      2.58882313	      2.60556620	      7.28522780	      4.97716002	     -5.22419879	      0.08686783	     12.80931075	      2.13964778	     -9.07975816	     -5.04818150	     -1.07532998	     -6.45897956	    -12.60251187	     -7.55017459	     -5.20554164	     20.50100087	     90.00000001	      0.00000000	      0.00000000	      9.38118130	    -19.40796738	      6.82006705	     40.29110632	     90.00000001	      0.00000000	      0.00000000
      0.11000000	     -5.40645858	     -1.69419414	      4.76921897	     -1.66770754	      0.96185838	     -0.11642115	     25.98921419	      0.88845176	     -4.48770322	     42.60641684	     -0.75600488	      0.74362226	      7.31951709	    -17.56449108	     -9.03678345	      1.53037853	      2.80594136	      7.54454771	      4.40444585	     -5.36032824	      0.07687208	     13.27551228	      2.24181018	     -9.03678345	     -5.05624545	     -1.12618958	     -6.73913899	    -12.97741956	     -7.38399540	     -5.37023081	     20.44512077	     90.00000001	      0.00000000	      0.00000000	      9.97201705	    -19.66389193	      7.20447872	     40.99981601	     90.00000001	      0.00000000	      0.00000000
      0.12000000	     -5.15096227	     -1.53847207	      4.88721801	     -1.65721670	      0.96074693	     -0.11688589	     26.15816129	      0.90046323	     -4.39181438	     39.68505674	     -1.12858267	      0.69263490	      7.12542961	    -17.42779995	     -8.97448053	      0.16187844	      2.95369905	      7.72208600	      3.78031891	     -5.50666234	      0.06597901	     13.54906756	      2.19220132	     -8.97448053	     -5.35359927	     -1.13131623	     -6.91251405	    -13.32598919	     -7.23962395	     -5.55708330	     20.43643036	     90.00000001	      0.00000000	      0.00000000	     10.63682775	    -19.92250181	      7.72904102	     41.69289025	     90.00000001	      0.00000000	      0.00000000
      0.13000000	     -5.48569363	     -0.98375429	      4.94420294	     -1.64688168	      0.95841729	     -0.11740848	     27.21474775	      0.29953623	     -4.52723414	     37.25353658	     -1.52090581	      0.65019687	      7.14806964	    -17.03609034	     -8.95939054	     -0.27273620	      3.62667178	      7.46836977	      3.74207260	     -5.56289993	      0.06531149	     13.97628947	      2.24252008	     -8.95939054	     -4.97593591	     -1.64979235	     -7.04945929	    -13.81890318	     -7.05476353	     -5.54274452	     20.45821672	     90.00000001	      0.00000000	      0.00000000	     11.20464756	    -20.05712720	      7.78808115	     42.19124625	     90.00000001	      0.00000000	      0.00000000
      0.14000000	     -5.07483976	     -1.05807792	      5.02638640	     -1.63655229	      0.95732851	     -0.11769415	     26.76040359	      0.67873253	     -3.59536838	     33.38267851	     -1.51955177	      0.58263765	      6.72728991	    -16.73026577	     -8.90651571	     -1.81667959	      3.46417057	      7.98190763	      3.06645279	     -5.68145320	      0.05351970	     14.51921120	      2.32219583	     -8.90651571	     -5.50686473	     -1.35714982	     -7.21911704	    -13.95118851	     -7.01096320	     -5.59757916	     20.48829427	     90.00000001	      0.00000000	      0.00000000	     11.80443577	    -20.42431437	      8.66844354	     42.95059403	     90.00000001	      0.00000000	      0.00000000
